<?xml version="1.0" encoding="UTF-8" standalone="no"?>
<!-- Created with Inkscape (http://www.inkscape.org/) -->

<svg
   width="120.11263mm"
   height="119.93759mm"
   viewBox="0 0 120.11263 119.93759"
   version="1.1"
   id="svg2743"
   inkscape:version="1.1.1 (3bf5ae0d25, 2021-09-20)"
   sodipodi:docname="logo_mark.svg"
   xmlns:inkscape="http://www.inkscape.org/namespaces/inkscape"
   xmlns:sodipodi="http://sodipodi.sourceforge.net/DTD/sodipodi-0.dtd"
   xmlns:xlink="http://www.w3.org/1999/xlink"
   xmlns="http://www.w3.org/2000/svg"
   xmlns:svg="http://www.w3.org/2000/svg">
  <sodipodi:namedview
     id="namedview2745"
     pagecolor="#ffffff"
     bordercolor="#666666"
     borderopacity="1.0"
     inkscape:pageshadow="2"
     inkscape:pageopacity="0.0"
     inkscape:pagecheckerboard="0"
     inkscape:document-units="mm"
     showgrid="false"
     fit-margin-top="5"
     fit-margin-left="5"
     fit-margin-right="5"
     fit-margin-bottom="5"
     inkscape:zoom="0.77504208"
     inkscape:cx="404.49417"
     inkscape:cy="240.6321"
     inkscape:window-width="1920"
     inkscape:window-height="1052"
     inkscape:window-x="1920"
     inkscape:window-y="0"
     inkscape:window-maximized="1"
     inkscape:current-layer="layer1" />
  <defs
     id="defs2740">
    <filter
       inkscape:collect="always"
       style="color-interpolation-filters:sRGB"
       id="filter4487-5"
       x="-0.067139418"
       width="1.1342788"
       y="-0.067260693"
       height="1.1345214">
      <feGaussianBlur
         inkscape:collect="always"
         stdDeviation="11.369316"
         id="feGaussianBlur4489-5" />
    </filter>
    <linearGradient
       y2="83.132401"
       x2="94.9561"
       y1="83.143898"
       x1="94.9561"
       gradientUnits="userSpaceOnUse"
       id="SVGID_2_">
      <stop
         id="stop13"
         style="stop-color:#88C96E"
         offset="0" />
      <stop
         id="stop15"
         style="stop-color:#86D859"
         offset="1" />
    </linearGradient>
    <filter
       inkscape:collect="always"
       style="color-interpolation-filters:sRGB"
       id="filter37673"
       x="-0.058027621"
       y="-0.058132396"
       width="1.1160552"
       height="1.1162648">
      <feGaussianBlur
         inkscape:collect="always"
         stdDeviation="6.9814482"
         id="feGaussianBlur37675" />
    </filter>
    <clipPath
       clipPathUnits="userSpaceOnUse"
       id="clipPath45017">
      <rect
         ry="177.38446"
         y="330.72318"
         x="675.77954"
         height="354.76892"
         width="355.40973"
         id="rect45019"
         style="fill:#cccccc;fill-opacity:1;stroke:none;stroke-width:1" />
    </clipPath>
    <linearGradient
       spreadMethod="pad"
       id="SVGID_4_"
       gradientUnits="userSpaceOnUse"
       x1="3867.9395"
       y1="35.736492"
       x2="3867.2991"
       y2="83.099998"
       gradientTransform="matrix(-1,0,0,1,3960.7991,0)">
      <stop
         offset="0"
         style="stop-color:#36495E;fill-opacity:1.0;fill:url(#linearGradient964)"
         id="stop35" />
      <stop
         offset="1"
         style="stop-color:#0A1C33;fill-opacity:1.0;fill:url(#linearGradient964)"
         id="stop37" />
    </linearGradient>
    <linearGradient
       inkscape:collect="always"
       xlink:href="#SVGID_5_"
       id="linearGradient60605"
       x1="409.85562"
       y1="1136.6886"
       x2="1120.6301"
       y2="1136.6886"
       gradientUnits="userSpaceOnUse"
       gradientTransform="translate(33.041978,-61.850477)" />
    <linearGradient
       y2="0.85610002"
       x2="76.014397"
       y1="83.143898"
       x1="76.014397"
       gradientUnits="userSpaceOnUse"
       id="SVGID_5_"
       xlink:href="#SVGID_3_">
      <stop
         id="stop44"
         style="stop-color:#41B782"
         offset="0.2" />
      <stop
         id="stop46"
         style="stop-color:#86D169"
         offset="1" />
    </linearGradient>
    <linearGradient
       id="SVGID_3_"
       gradientUnits="userSpaceOnUse"
       x1="151.9669"
       y1="83.143898"
       x2="151.9669"
       y2="83.132401">
      <stop
         offset="0"
         style="stop-color:#88C96E;fill-opacity:1.0;fill:url(#linearGradient964)"
         id="stop26" />
      <stop
         offset="1"
         style="stop-color:#86D859;fill-opacity:1.0;fill:url(#linearGradient964)"
         id="stop28" />
    </linearGradient>
    <linearGradient
       inkscape:collect="always"
       xlink:href="#SVGID_4_"
       id="linearGradient64981"
       gradientUnits="userSpaceOnUse"
       x1="433.3504"
       y1="1119.7834"
       x2="501.40576"
       y2="1119.7834"
       gradientTransform="translate(98.947518,-62.135344)" />
    <linearGradient
       inkscape:collect="always"
       xlink:href="#SVGID_4_"
       id="linearGradient65777"
       gradientUnits="userSpaceOnUse"
       gradientTransform="translate(25.841038,-62.148479)"
       x1="433.3504"
       y1="1119.7834"
       x2="501.40576"
       y2="1119.7834" />
    <linearGradient
       inkscape:collect="always"
       xlink:href="#SVGID_5_"
       id="linearGradient2950"
       gradientUnits="userSpaceOnUse"
       gradientTransform="translate(39.654874,109.5311)"
       x1="409.85562"
       y1="1136.6886"
       x2="1120.6301"
       y2="1136.6886" />
    <filter
       inkscape:collect="always"
       style="color-interpolation-filters:sRGB"
       id="filter3530"
       x="-0.041535859"
       y="-0.051930446"
       width="1.0830717"
       height="1.1038609">
      <feGaussianBlur
         inkscape:collect="always"
         stdDeviation="3.2135212"
         id="feGaussianBlur3532" />
    </filter>
    <clipPath
       clipPathUnits="userSpaceOnUse"
       id="clipPath5439">
      <rect
         ry="50.061836"
         y="97.322823"
         x="-151.692"
         height="100.12367"
         width="100.30453"
         id="rect5441"
         style="fill:#cccccc;fill-opacity:1;stroke:none;stroke-width:0.282223" />
    </clipPath>
  </defs>
  <g
     inkscape:label="Layer 1"
     inkscape:groupmode="layer"
     id="layer1"
     transform="translate(159.33827,-90.238098)">
    <rect
       style="fill:#000000;fill-opacity:1;stroke:none;filter:url(#filter4487-5)"
       id="rect4413-4"
       width="406.41339"
       height="405.6806"
       x="181.20412"
       y="338.42154"
       ry="202.8403"
       transform="matrix(0.23886323,0,0,0.23886323,-191.10356,20.919343)" />
    <rect
       ry="50.061836"
       y="97.322823"
       x="-151.692"
       height="100.12367"
       width="100.30453"
       id="rect4147-31"
       style="fill:#cccccc;fill-opacity:1;stroke:none;stroke-width:0.282222" />
    <path
       style="fill:none;stroke-width:0.282222"
       inkscape:connector-curvature="0"
       d="m -132.95131,110.85375 h 61.053989 v 61.05401 h -61.053989 z"
       id="path3229-9" />
    <path
       id="path37563"
       style="opacity:0.51;fill:#000000;fill-opacity:1;stroke:none;stroke-width:0.812443;filter:url(#filter37673)"
       d="m 195.10344,989.67163 c -79.83955,0 -144.11388,64.27577 -144.11388,144.11537 0,75.6939 57.78468,137.3566 131.82161,143.5604 l 6.16176,-112.3693 c -5.37476,-1.1107 -10.46343,-3.6082 -14.58917,-7.2373 -6.19763,-5.3932 -10.15157,-13.2659 -10.76446,-21.4591 -0.69223,-8.3544 2.11292,-16.9229 7.60326,-23.256 5.76733,-6.7639 14.47937,-10.9081 23.37062,-11.068 0.54313,-0.016 1.08645,-0.018 1.62895,0 8.13757,0.1991 16.13105,3.6638 21.82051,9.4955 2.8296,2.7912 4.88073,6.2335 6.7583,9.7053 -2.12702,1.0579 -4.25446,2.1146 -6.38192,3.1716 -0.74222,0.267 -1.35037,0.8884 -2.15112,0.9551 -3.44812,9.0299 -6.89684,18.0597 -10.34495,27.0897 0.83294,-0.4495 1.66286,-0.9052 2.49475,-1.3567 1.49093,2.5261 2.90243,5.1112 4.44502,7.5988 0.51145,1.0144 -0.19987,2.1965 -1.20051,2.5587 -3.19777,1.8517 -6.70527,3.1711 -10.33306,3.8723 l 6.58574,112.3039 c 74.03765,-6.2031 131.82467,-67.8661 131.82467,-143.5605 0,-79.8395 -64.27592,-144.11527 -144.11546,-144.11527 z m 0.0123,122.74407 c -5.47288,0.056 -10.87655,2.2896 -14.75726,6.1618 h 5.02669 c 1.23991,3.6514 2.48026,7.3021 3.72055,10.9534 0.29727,-0.74 0.59533,-1.4796 0.89259,-2.2196 -1.16737,-2.9112 -2.33477,-5.8225 -3.50188,-8.7338 h 12.19705 c 1.36556,3.3715 2.73124,6.7429 4.09693,10.1144 1.37417,-4.2918 2.74953,-8.5837 4.1237,-12.8755 -3.18025,-2.0571 -6.91997,-3.2313 -10.70347,-3.3828 -0.36505,-0.016 -0.73004,-0.021 -1.0949,-0.018 z m -19.89702,14.2292 c -0.15905,0.4485 -0.30231,0.9028 -0.42991,1.3612 -1.58343,5.5632 -0.77665,11.7499 2.2121,16.706 0.19384,0.3364 0.51284,0.8168 0.65455,1.0384 1.92462,2.8684 4.57319,5.2363 7.61367,6.8698 -3.35027,-8.6586 -6.70014,-17.3168 -10.05041,-25.9754 z m 20.70778,15.449 c -1.9285,4.1389 -3.85688,8.2783 -5.78538,12.4172 3.5084,0.8772 7.23893,0.8534 10.73322,-0.08 -0.23801,-0.5929 -0.47603,-1.1848 -0.71406,-1.7777 -1.41118,-3.5196 -2.82259,-7.0397 -4.23378,-10.5592 z m -2.4888,135.7653 c 0.55734,0.01 1.10727,0.042 1.66614,0.042 h 0.52067 c 0.55888,0 1.10881,-0.035 1.66615,-0.042 z"
       transform="matrix(0.28222223,0,0,0.28222223,-155.06478,-171.81893)" />
    <g
       id="g43030"
       style="opacity:0.234267"
       clip-path="url(#clipPath45017)"
       transform="matrix(0.28222223,0,0,0.28222223,-342.41201,3.9853968)">
      <g
         style="fill:#000000;fill-opacity:1;stroke:none;stroke-width:0.812443"
         id="g43027">
        <path
           d="m 857.057,362.993 c -79.839,0 -144.114,64.276 -144.114,144.115 l 282.843,282.843 c 0,-79.84 64.274,-144.115 144.114,-144.115 z"
           id="path42921" />
        <path
           d="m 712.943,507.108 c 0,39.906 16.061,75.912 42.097,101.948 l 282.84,282.843 c -26.03,-26.036 -42.094,-62.042 -42.094,-101.948 z"
           id="path42923" />
        <path
           d="m 755.04,609.056 c 23.349,23.349 54.72,38.68 89.725,41.613 l 282.845,282.842 c -35.01,-2.933 -66.38,-18.263 -89.73,-41.612 z"
           id="path42925" />
        <path
           d="m 844.765,650.669 6.162,-112.37 282.843,282.843 -6.16,112.369 z"
           id="path42927" />
        <path
           d="m 850.927,538.299 c -5.375,-1.11 -10.464,-3.608 -14.59,-7.237 l 282.843,282.843 c 4.13,3.629 9.21,6.126 14.59,7.237 z"
           id="path42929" />
        <path
           d="m 836.337,531.062 c -0.532,-0.464 -1.049,-0.946 -1.548,-1.445 L 1117.63,812.46 c 0.5,0.499 1.02,0.981 1.55,1.445 z"
           id="path42931" />
        <path
           d="m 834.789,529.617 c -5.304,-5.304 -8.656,-12.525 -9.216,-20.014 l 282.847,282.843 c 0.56,7.488 3.91,14.709 9.21,20.014 z"
           id="path42933" />
        <path
           d="m 825.573,509.603 c -0.692,-8.354 2.113,-16.923 7.603,-23.256 L 1116.02,769.19 c -5.49,6.333 -8.3,14.901 -7.6,23.256 z"
           id="path42935" />
        <path
           d="m 833.176,486.347 c 5.768,-6.764 14.48,-10.908 23.371,-11.068 l 282.843,282.843 c -8.89,0.16 -17.6,4.304 -23.37,11.068 z"
           id="path42937" />
        <path
           d="m 856.547,475.279 c 0.543,-0.016 1.086,-0.018 1.629,-0.004 l 282.844,282.843 c -0.54,-0.014 -1.09,-0.012 -1.63,0.004 z"
           id="path42939" />
        <path
           d="m 858.176,475.275 c 8.013,0.196 15.887,3.559 21.558,9.23 l 282.846,282.843 c -5.67,-5.671 -13.55,-9.034 -21.56,-9.23 z"
           id="path42941" />
        <path
           d="m 879.734,484.505 c 0.088,0.088 0.176,0.177 0.262,0.266 l 282.844,282.842 c -0.09,-0.089 -0.18,-0.177 -0.26,-0.265 z"
           id="path42943" />
        <path
           d="m 879.996,484.771 c 0.039,0.037 0.077,0.075 0.115,0.113 l 282.839,282.843 c -0.03,-0.038 -0.07,-0.076 -0.11,-0.114 z"
           id="path42945" />
        <path
           d="m 880.111,484.884 c 2.77,2.771 4.792,6.167 6.644,9.592 L 1169.6,777.319 c -1.85,-3.425 -3.88,-6.821 -6.65,-9.592 z"
           id="path42947" />
        <path
           d="m 886.755,494.476 c -2.127,1.058 -4.255,2.114 -6.382,3.171 L 1163.22,780.49 c 2.12,-1.057 4.25,-2.114 6.38,-3.171 z"
           id="path42949" />
        <path
           d="m 880.373,497.647 c -0.742,0.267 -1.351,0.889 -2.151,0.956 l 282.838,282.842 c 0.81,-0.066 1.41,-0.688 2.16,-0.955 z"
           id="path42951" />
        <path
           d="m 878.222,498.603 c -3.448,9.029 -6.897,18.059 -10.345,27.089 l 282.843,282.843 c 3.45,-9.03 6.9,-18.06 10.34,-27.09 z"
           id="path42953" />
        <path
           d="m 867.877,525.692 c 0.833,-0.449 1.663,-0.905 2.494,-1.356 l 282.839,282.842 c -0.83,0.452 -1.66,0.907 -2.49,1.357 z"
           id="path42955" />
        <path
           d="m 870.371,524.336 c 1.491,2.526 2.903,5.111 4.445,7.598 l 282.844,282.843 c -1.54,-2.488 -2.95,-5.073 -4.45,-7.599 z"
           id="path42957" />
        <path
           d="m 874.816,531.934 c 0.512,1.015 -0.199,2.197 -1.2,2.559 l 282.844,282.843 c 1,-0.362 1.71,-1.545 1.2,-2.559 z"
           id="path42959" />
        <path
           d="m 873.616,534.493 c -3.198,1.852 -6.705,3.171 -10.333,3.872 l 282.847,282.843 c 3.62,-0.701 7.13,-2.021 10.33,-3.872 z"
           id="path42961" />
        <path
           d="m 863.283,538.365 6.586,112.304 282.841,282.843 -6.58,-112.304 z"
           id="path42963" />
        <path
           d="m 869.869,650.669 c 74.037,-6.203 131.821,-67.866 131.821,-143.56 l 282.85,282.842 c 0,75.695 -57.79,137.358 -131.83,143.561 z"
           id="path42965" />
        <path
           d="m 1001.69,507.109 c 0,-39.92 -16.066,-75.949 -42.115,-101.998 l 282.845,282.843 c 26.05,26.049 42.12,62.078 42.12,101.997 z"
           id="path42967" />
        <path
           d="M 959.575,405.111 C 933.527,379.062 897.498,362.993 857.578,362.993 l 282.842,282.843 c 39.92,0 75.95,16.069 102,42.118 z"
           id="path42969" />
        <path
           d="m 857.578,362.993 h -0.521 L 1139.9,645.836 h 0.52 z"
           id="path42971" />
        <path
           d="m 857.069,485.737 c -5.472,0.056 -10.876,2.29 -14.757,6.162 l 282.838,282.843 c 3.89,-3.873 9.29,-6.107 14.76,-6.162 z"
           id="path42973" />
        <path
           d="m 842.312,491.899 h 5.027 l 282.841,282.843 h -5.03 z"
           id="path42975" />
        <path
           d="m 847.339,491.899 c 1.24,3.651 2.48,7.302 3.72,10.953 L 1133.9,785.695 c -1.24,-3.651 -2.48,-7.302 -3.72,-10.953 z"
           id="path42977" />
        <path
           d="m 851.059,502.852 c 0.298,-0.74 0.596,-1.479 0.893,-2.219 l 282.838,282.842 c -0.29,0.74 -0.59,1.48 -0.89,2.22 z"
           id="path42979" />
        <path
           d="m 851.952,500.633 c -1.167,-2.912 -2.335,-5.823 -3.502,-8.734 l 282.84,282.843 c 1.17,2.911 2.34,5.822 3.5,8.733 z"
           id="path42981" />
        <path
           d="m 848.45,491.899 h 12.197 l 282.843,282.843 h -12.2 z"
           id="path42983" />
        <path
           d="m 860.647,491.899 c 1.366,3.371 2.731,6.743 4.097,10.114 l 282.846,282.843 c -1.37,-3.372 -2.73,-6.743 -4.1,-10.114 z"
           id="path42985" />
        <path
           d="m 864.744,502.013 c 1.374,-4.292 2.75,-8.583 4.124,-12.875 L 1151.71,771.98 c -1.37,4.292 -2.75,8.584 -4.12,12.876 z"
           id="path42987" />
        <path
           d="m 868.868,489.138 c -3.18,-2.057 -6.92,-3.232 -10.704,-3.383 l 282.846,282.843 c 3.78,0.151 7.52,1.325 10.7,3.382 z"
           id="path42989" />
        <path
           d="m 858.164,485.755 c -0.365,-0.016 -0.73,-0.022 -1.095,-0.018 L 1139.91,768.58 c 0.37,-0.004 0.73,0.002 1.1,0.018 z"
           id="path42991" />
        <path
           d="m 857.069,485.737 -0.012,-122.744 282.843,282.843 0.01,122.744 z"
           id="path42993" />
        <path
           d="m 837.172,499.966 c -0.159,0.449 -0.302,0.903 -0.429,1.361 L 1119.59,784.17 c 0.12,-0.458 0.27,-0.913 0.43,-1.361 z"
           id="path42995" />
        <path
           d="m 836.743,501.327 c -1.584,5.564 -0.777,11.75 2.212,16.706 L 1121.8,800.876 c -2.99,-4.956 -3.8,-11.143 -2.21,-16.706 z"
           id="path42997" />
        <path
           d="m 838.955,518.033 c 0.193,0.337 0.512,0.817 0.654,1.039 l 282.841,282.843 c -0.14,-0.222 -0.46,-0.702 -0.65,-1.039 z"
           id="path42999" />
        <path
           d="m 839.609,519.072 c 0.754,1.123 1.618,2.169 2.574,3.125 L 1125.03,805.04 c -0.96,-0.956 -1.82,-2.002 -2.58,-3.125 z"
           id="path43001" />
        <path
           d="m 842.183,522.197 c 1.485,1.485 3.19,2.751 5.04,3.745 l 282.847,282.842 c -1.85,-0.994 -3.56,-2.259 -5.04,-3.744 z"
           id="path43003" />
        <path
           d="m 847.223,525.942 c -3.35,-8.659 -6.7,-17.317 -10.051,-25.976 l 282.848,282.843 c 3.35,8.659 6.7,17.317 10.05,25.975 z"
           id="path43005" />
        <path
           d="M 837.172,499.966 857.057,362.993 1139.9,645.836 1120.02,782.809 Z"
           id="path43007" />
        <path
           d="m 857.88,515.415 c -1.928,4.139 -3.857,8.279 -5.785,12.417 l 282.845,282.843 c 1.93,-4.139 3.85,-8.278 5.78,-12.417 z"
           id="path43009" />
        <path
           d="m 852.095,527.832 c 3.508,0.878 7.239,0.854 10.733,-0.08 l 282.842,282.843 c -3.49,0.934 -7.22,0.957 -10.73,0.08 z"
           id="path43011" />
        <path
           d="m 862.828,527.752 c -0.238,-0.593 -0.476,-1.185 -0.714,-1.778 l 282.846,282.843 c 0.23,0.593 0.47,1.185 0.71,1.778 z"
           id="path43013" />
        <path
           d="m 862.114,525.974 c -1.411,-3.519 -2.823,-7.039 -4.234,-10.559 l 282.84,282.843 c 1.41,3.519 2.83,7.04 4.24,10.559 z"
           id="path43015" />
        <path
           d="m 857.88,515.415 -0.823,-152.422 282.843,282.843 0.82,152.422 z"
           id="path43017" />
        <path
           d="m 855.391,651.181 c 0.558,0.006 1.108,0.041 1.667,0.041 L 1139.9,934.065 c -0.56,0 -1.11,-0.036 -1.67,-0.042 z"
           id="path43019" />
        <path
           d="m 857.058,651.222 h 0.52 l 282.842,282.843 h -0.52 z"
           id="path43021" />
        <path
           d="m 857.578,651.222 c 0.559,0 1.109,-0.035 1.666,-0.041 l 282.846,282.842 c -0.56,0.007 -1.11,0.042 -1.67,0.042 z"
           id="path43023" />
        <path
           d="m 859.244,651.181 -2.187,-288.188 282.843,282.843 2.19,288.187 z"
           id="path43025" />
      </g>
      <g
         id="g43603">
        <g
           style="fill:#000000;fill-opacity:1;stroke:none;stroke-width:0.812443"
           id="g43600">
          <path
             d="m 857.057,362.993 c -79.839,0 -144.114,64.276 -144.114,144.115 l 282.843,282.843 c 0,-79.84 64.274,-144.115 144.114,-144.115 z"
             id="path43494" />
          <path
             d="m 712.943,507.108 c 0,39.906 16.061,75.912 42.097,101.948 l 282.84,282.843 c -26.03,-26.036 -42.094,-62.042 -42.094,-101.948 z"
             id="path43496" />
          <path
             d="m 755.04,609.056 c 23.349,23.349 54.72,38.68 89.725,41.613 l 282.845,282.842 c -35.01,-2.933 -66.38,-18.263 -89.73,-41.612 z"
             id="path43498" />
          <path
             d="m 844.765,650.669 6.162,-112.37 282.843,282.843 -6.16,112.369 z"
             id="path43500" />
          <path
             d="m 850.927,538.299 c -5.375,-1.11 -10.464,-3.608 -14.59,-7.237 l 282.843,282.843 c 4.13,3.629 9.21,6.126 14.59,7.237 z"
             id="path43502" />
          <path
             d="m 836.337,531.062 c -0.532,-0.464 -1.049,-0.946 -1.548,-1.445 L 1117.63,812.46 c 0.5,0.499 1.02,0.981 1.55,1.445 z"
             id="path43504" />
          <path
             d="m 834.789,529.617 c -5.304,-5.304 -8.656,-12.525 -9.216,-20.014 l 282.847,282.843 c 0.56,7.488 3.91,14.709 9.21,20.014 z"
             id="path43506" />
          <path
             d="m 825.573,509.603 c -0.692,-8.354 2.113,-16.923 7.603,-23.256 L 1116.02,769.19 c -5.49,6.333 -8.3,14.901 -7.6,23.256 z"
             id="path43508" />
          <path
             d="m 833.176,486.347 c 5.768,-6.764 14.48,-10.908 23.371,-11.068 l 282.843,282.843 c -8.89,0.16 -17.6,4.304 -23.37,11.068 z"
             id="path43510" />
          <path
             d="m 856.547,475.279 c 0.543,-0.016 1.086,-0.018 1.629,-0.004 l 282.844,282.843 c -0.54,-0.014 -1.09,-0.012 -1.63,0.004 z"
             id="path43512" />
          <path
             d="m 858.176,475.275 c 8.013,0.196 15.887,3.559 21.558,9.23 l 282.846,282.843 c -5.67,-5.671 -13.55,-9.034 -21.56,-9.23 z"
             id="path43514" />
          <path
             d="m 879.734,484.505 c 0.088,0.088 0.176,0.177 0.262,0.266 l 282.844,282.842 c -0.09,-0.089 -0.18,-0.177 -0.26,-0.265 z"
             id="path43516" />
          <path
             d="m 879.996,484.771 c 0.039,0.037 0.077,0.075 0.115,0.113 l 282.839,282.843 c -0.03,-0.038 -0.07,-0.076 -0.11,-0.114 z"
             id="path43518" />
          <path
             d="m 880.111,484.884 c 2.77,2.771 4.792,6.167 6.644,9.592 L 1169.6,777.319 c -1.85,-3.425 -3.88,-6.821 -6.65,-9.592 z"
             id="path43520" />
          <path
             d="m 886.755,494.476 c -2.127,1.058 -4.255,2.114 -6.382,3.171 L 1163.22,780.49 c 2.12,-1.057 4.25,-2.114 6.38,-3.171 z"
             id="path43522" />
          <path
             d="m 880.373,497.647 c -0.742,0.267 -1.351,0.889 -2.151,0.956 l 282.838,282.842 c 0.81,-0.066 1.41,-0.688 2.16,-0.955 z"
             id="path43524" />
          <path
             d="m 878.222,498.603 c -3.448,9.029 -6.897,18.059 -10.345,27.089 l 282.843,282.843 c 3.45,-9.03 6.9,-18.06 10.34,-27.09 z"
             id="path43526" />
          <path
             d="m 867.877,525.692 c 0.833,-0.449 1.663,-0.905 2.494,-1.356 l 282.839,282.842 c -0.83,0.452 -1.66,0.907 -2.49,1.357 z"
             id="path43528" />
          <path
             d="m 870.371,524.336 c 1.491,2.526 2.903,5.111 4.445,7.598 l 282.844,282.843 c -1.54,-2.488 -2.95,-5.073 -4.45,-7.599 z"
             id="path43530" />
          <path
             d="m 874.816,531.934 c 0.512,1.015 -0.199,2.197 -1.2,2.559 l 282.844,282.843 c 1,-0.362 1.71,-1.545 1.2,-2.559 z"
             id="path43532" />
          <path
             d="m 873.616,534.493 c -3.198,1.852 -6.705,3.171 -10.333,3.872 l 282.847,282.843 c 3.62,-0.701 7.13,-2.021 10.33,-3.872 z"
             id="path43534" />
          <path
             d="m 863.283,538.365 6.586,112.304 282.841,282.843 -6.58,-112.304 z"
             id="path43536" />
          <path
             d="m 869.869,650.669 c 74.037,-6.203 131.821,-67.866 131.821,-143.56 l 282.85,282.842 c 0,75.695 -57.79,137.358 -131.83,143.561 z"
             id="path43538" />
          <path
             d="m 1001.69,507.109 c 0,-39.92 -16.066,-75.949 -42.115,-101.998 l 282.845,282.843 c 26.05,26.049 42.12,62.078 42.12,101.997 z"
             id="path43540" />
          <path
             d="M 959.575,405.111 C 933.527,379.062 897.498,362.993 857.578,362.993 l 282.842,282.843 c 39.92,0 75.95,16.069 102,42.118 z"
             id="path43542" />
          <path
             d="m 857.578,362.993 h -0.521 L 1139.9,645.836 h 0.52 z"
             id="path43544" />
          <path
             d="m 857.069,485.737 c -5.472,0.056 -10.876,2.29 -14.757,6.162 l 282.838,282.843 c 3.89,-3.873 9.29,-6.107 14.76,-6.162 z"
             id="path43546" />
          <path
             d="m 842.312,491.899 h 5.027 l 282.841,282.843 h -5.03 z"
             id="path43548" />
          <path
             d="m 847.339,491.899 c 1.24,3.651 2.48,7.302 3.72,10.953 L 1133.9,785.695 c -1.24,-3.651 -2.48,-7.302 -3.72,-10.953 z"
             id="path43550" />
          <path
             d="m 851.059,502.852 c 0.298,-0.74 0.596,-1.479 0.893,-2.219 l 282.838,282.842 c -0.29,0.74 -0.59,1.48 -0.89,2.22 z"
             id="path43552" />
          <path
             d="m 851.952,500.633 c -1.167,-2.912 -2.335,-5.823 -3.502,-8.734 l 282.84,282.843 c 1.17,2.911 2.34,5.822 3.5,8.733 z"
             id="path43554" />
          <path
             d="m 848.45,491.899 h 12.197 l 282.843,282.843 h -12.2 z"
             id="path43556" />
          <path
             d="m 860.647,491.899 c 1.366,3.371 2.731,6.743 4.097,10.114 l 282.846,282.843 c -1.37,-3.372 -2.73,-6.743 -4.1,-10.114 z"
             id="path43558" />
          <path
             d="m 864.744,502.013 c 1.374,-4.292 2.75,-8.583 4.124,-12.875 L 1151.71,771.98 c -1.37,4.292 -2.75,8.584 -4.12,12.876 z"
             id="path43560" />
          <path
             d="m 868.868,489.138 c -3.18,-2.057 -6.92,-3.232 -10.704,-3.383 l 282.846,282.843 c 3.78,0.151 7.52,1.325 10.7,3.382 z"
             id="path43562" />
          <path
             d="m 858.164,485.755 c -0.365,-0.016 -0.73,-0.022 -1.095,-0.018 L 1139.91,768.58 c 0.37,-0.004 0.73,0.002 1.1,0.018 z"
             id="path43564" />
          <path
             d="m 857.069,485.737 -0.012,-122.744 282.843,282.843 0.01,122.744 z"
             id="path43566" />
          <path
             d="m 837.172,499.966 c -0.159,0.449 -0.302,0.903 -0.429,1.361 L 1119.59,784.17 c 0.12,-0.458 0.27,-0.913 0.43,-1.361 z"
             id="path43568" />
          <path
             d="m 836.743,501.327 c -1.584,5.564 -0.777,11.75 2.212,16.706 L 1121.8,800.876 c -2.99,-4.956 -3.8,-11.143 -2.21,-16.706 z"
             id="path43570" />
          <path
             d="m 838.955,518.033 c 0.193,0.337 0.512,0.817 0.654,1.039 l 282.841,282.843 c -0.14,-0.222 -0.46,-0.702 -0.65,-1.039 z"
             id="path43572" />
          <path
             d="m 839.609,519.072 c 0.754,1.123 1.618,2.169 2.574,3.125 L 1125.03,805.04 c -0.96,-0.956 -1.82,-2.002 -2.58,-3.125 z"
             id="path43574" />
          <path
             d="m 842.183,522.197 c 1.485,1.485 3.19,2.751 5.04,3.745 l 282.847,282.842 c -1.85,-0.994 -3.56,-2.259 -5.04,-3.744 z"
             id="path43576" />
          <path
             d="m 847.223,525.942 c -3.35,-8.659 -6.7,-17.317 -10.051,-25.976 l 282.848,282.843 c 3.35,8.659 6.7,17.317 10.05,25.975 z"
             id="path43578" />
          <path
             d="M 837.172,499.966 857.057,362.993 1139.9,645.836 1120.02,782.809 Z"
             id="path43580" />
          <path
             d="m 857.88,515.415 c -1.928,4.139 -3.857,8.279 -5.785,12.417 l 282.845,282.843 c 1.93,-4.139 3.85,-8.278 5.78,-12.417 z"
             id="path43582" />
          <path
             d="m 852.095,527.832 c 3.508,0.878 7.239,0.854 10.733,-0.08 l 282.842,282.843 c -3.49,0.934 -7.22,0.957 -10.73,0.08 z"
             id="path43584" />
          <path
             d="m 862.828,527.752 c -0.238,-0.593 -0.476,-1.185 -0.714,-1.778 l 282.846,282.843 c 0.23,0.593 0.47,1.185 0.71,1.778 z"
             id="path43586" />
          <path
             d="m 862.114,525.974 c -1.411,-3.519 -2.823,-7.039 -4.234,-10.559 l 282.84,282.843 c 1.41,3.519 2.83,7.04 4.24,10.559 z"
             id="path43588" />
          <path
             d="m 857.88,515.415 -0.823,-152.422 282.843,282.843 0.82,152.422 z"
             id="path43590" />
          <path
             d="m 855.391,651.181 c 0.558,0.006 1.108,0.041 1.667,0.041 L 1139.9,934.065 c -0.56,0 -1.11,-0.036 -1.67,-0.042 z"
             id="path43592" />
          <path
             d="m 857.058,651.222 h 0.52 l 282.842,282.843 h -0.52 z"
             id="path43594" />
          <path
             d="m 857.578,651.222 c 0.559,0 1.109,-0.035 1.666,-0.041 l 282.846,282.842 c -0.56,0.007 -1.11,0.042 -1.67,0.042 z"
             id="path43596" />
          <path
             d="m 859.244,651.181 -2.187,-288.188 282.843,282.843 2.19,288.187 z"
             id="path43598" />
        </g>
        <g
           id="g44286">
          <g
             style="fill:#000000;fill-opacity:1;stroke:none;stroke-width:0.812443"
             id="g44283">
            <path
               d="m 857.057,362.993 c -79.839,0 -144.114,64.276 -144.114,144.115 l 282.843,282.843 c 0,-79.84 64.274,-144.115 144.114,-144.115 z"
               id="path44177" />
            <path
               d="m 712.943,507.108 c 0,39.906 16.061,75.912 42.097,101.948 l 282.84,282.843 c -26.03,-26.036 -42.094,-62.042 -42.094,-101.948 z"
               id="path44179" />
            <path
               d="m 755.04,609.056 c 23.349,23.349 54.72,38.68 89.725,41.613 l 282.845,282.842 c -35.01,-2.933 -66.38,-18.263 -89.73,-41.612 z"
               id="path44181" />
            <path
               d="m 844.765,650.669 6.162,-112.37 282.843,282.843 -6.16,112.369 z"
               id="path44183" />
            <path
               d="m 850.927,538.299 c -5.375,-1.11 -10.464,-3.608 -14.59,-7.237 l 282.843,282.843 c 4.13,3.629 9.21,6.126 14.59,7.237 z"
               id="path44185" />
            <path
               d="m 836.337,531.062 c -0.532,-0.464 -1.049,-0.946 -1.548,-1.445 L 1117.63,812.46 c 0.5,0.499 1.02,0.981 1.55,1.445 z"
               id="path44187" />
            <path
               d="m 834.789,529.617 c -5.304,-5.304 -8.656,-12.525 -9.216,-20.014 l 282.847,282.843 c 0.56,7.488 3.91,14.709 9.21,20.014 z"
               id="path44189" />
            <path
               d="m 825.573,509.603 c -0.692,-8.354 2.113,-16.923 7.603,-23.256 L 1116.02,769.19 c -5.49,6.333 -8.3,14.901 -7.6,23.256 z"
               id="path44191" />
            <path
               d="m 833.176,486.347 c 5.768,-6.764 14.48,-10.908 23.371,-11.068 l 282.843,282.843 c -8.89,0.16 -17.6,4.304 -23.37,11.068 z"
               id="path44193" />
            <path
               d="m 856.547,475.279 c 0.543,-0.016 1.086,-0.018 1.629,-0.004 l 282.844,282.843 c -0.54,-0.014 -1.09,-0.012 -1.63,0.004 z"
               id="path44195" />
            <path
               d="m 858.176,475.275 c 8.013,0.196 15.887,3.559 21.558,9.23 l 282.846,282.843 c -5.67,-5.671 -13.55,-9.034 -21.56,-9.23 z"
               id="path44197" />
            <path
               d="m 879.734,484.505 c 0.088,0.088 0.176,0.177 0.262,0.266 l 282.844,282.842 c -0.09,-0.089 -0.18,-0.177 -0.26,-0.265 z"
               id="path44199" />
            <path
               d="m 879.996,484.771 c 0.039,0.037 0.077,0.075 0.115,0.113 l 282.839,282.843 c -0.03,-0.038 -0.07,-0.076 -0.11,-0.114 z"
               id="path44201" />
            <path
               d="m 880.111,484.884 c 2.77,2.771 4.792,6.167 6.644,9.592 L 1169.6,777.319 c -1.85,-3.425 -3.88,-6.821 -6.65,-9.592 z"
               id="path44203" />
            <path
               d="m 886.755,494.476 c -2.127,1.058 -4.255,2.114 -6.382,3.171 L 1163.22,780.49 c 2.12,-1.057 4.25,-2.114 6.38,-3.171 z"
               id="path44205" />
            <path
               d="m 880.373,497.647 c -0.742,0.267 -1.351,0.889 -2.151,0.956 l 282.838,282.842 c 0.81,-0.066 1.41,-0.688 2.16,-0.955 z"
               id="path44207" />
            <path
               d="m 878.222,498.603 c -3.448,9.029 -6.897,18.059 -10.345,27.089 l 282.843,282.843 c 3.45,-9.03 6.9,-18.06 10.34,-27.09 z"
               id="path44209" />
            <path
               d="m 867.877,525.692 c 0.833,-0.449 1.663,-0.905 2.494,-1.356 l 282.839,282.842 c -0.83,0.452 -1.66,0.907 -2.49,1.357 z"
               id="path44211" />
            <path
               d="m 870.371,524.336 c 1.491,2.526 2.903,5.111 4.445,7.598 l 282.844,282.843 c -1.54,-2.488 -2.95,-5.073 -4.45,-7.599 z"
               id="path44213" />
            <path
               d="m 874.816,531.934 c 0.512,1.015 -0.199,2.197 -1.2,2.559 l 282.844,282.843 c 1,-0.362 1.71,-1.545 1.2,-2.559 z"
               id="path44215" />
            <path
               d="m 873.616,534.493 c -3.198,1.852 -6.705,3.171 -10.333,3.872 l 282.847,282.843 c 3.62,-0.701 7.13,-2.021 10.33,-3.872 z"
               id="path44217" />
            <path
               d="m 863.283,538.365 6.586,112.304 282.841,282.843 -6.58,-112.304 z"
               id="path44219" />
            <path
               d="m 869.869,650.669 c 74.037,-6.203 131.821,-67.866 131.821,-143.56 l 282.85,282.842 c 0,75.695 -57.79,137.358 -131.83,143.561 z"
               id="path44221" />
            <path
               d="m 1001.69,507.109 c 0,-39.92 -16.066,-75.949 -42.115,-101.998 l 282.845,282.843 c 26.05,26.049 42.12,62.078 42.12,101.997 z"
               id="path44223" />
            <path
               d="M 959.575,405.111 C 933.527,379.062 897.498,362.993 857.578,362.993 l 282.842,282.843 c 39.92,0 75.95,16.069 102,42.118 z"
               id="path44225" />
            <path
               d="m 857.578,362.993 h -0.521 L 1139.9,645.836 h 0.52 z"
               id="path44227" />
            <path
               d="m 857.069,485.737 c -5.472,0.056 -10.876,2.29 -14.757,6.162 l 282.838,282.843 c 3.89,-3.873 9.29,-6.107 14.76,-6.162 z"
               id="path44229" />
            <path
               d="m 842.312,491.899 h 5.027 l 282.841,282.843 h -5.03 z"
               id="path44231" />
            <path
               d="m 847.339,491.899 c 1.24,3.651 2.48,7.302 3.72,10.953 L 1133.9,785.695 c -1.24,-3.651 -2.48,-7.302 -3.72,-10.953 z"
               id="path44233" />
            <path
               d="m 851.059,502.852 c 0.298,-0.74 0.596,-1.479 0.893,-2.219 l 282.838,282.842 c -0.29,0.74 -0.59,1.48 -0.89,2.22 z"
               id="path44235" />
            <path
               d="m 851.952,500.633 c -1.167,-2.912 -2.335,-5.823 -3.502,-8.734 l 282.84,282.843 c 1.17,2.911 2.34,5.822 3.5,8.733 z"
               id="path44237" />
            <path
               d="m 848.45,491.899 h 12.197 l 282.843,282.843 h -12.2 z"
               id="path44239" />
            <path
               d="m 860.647,491.899 c 1.366,3.371 2.731,6.743 4.097,10.114 l 282.846,282.843 c -1.37,-3.372 -2.73,-6.743 -4.1,-10.114 z"
               id="path44241" />
            <path
               d="m 864.744,502.013 c 1.374,-4.292 2.75,-8.583 4.124,-12.875 L 1151.71,771.98 c -1.37,4.292 -2.75,8.584 -4.12,12.876 z"
               id="path44243" />
            <path
               d="m 868.868,489.138 c -3.18,-2.057 -6.92,-3.232 -10.704,-3.383 l 282.846,282.843 c 3.78,0.151 7.52,1.325 10.7,3.382 z"
               id="path44245" />
            <path
               d="m 858.164,485.755 c -0.365,-0.016 -0.73,-0.022 -1.095,-0.018 L 1139.91,768.58 c 0.37,-0.004 0.73,0.002 1.1,0.018 z"
               id="path44247" />
            <path
               d="m 857.069,485.737 -0.012,-122.744 282.843,282.843 0.01,122.744 z"
               id="path44249" />
            <path
               d="m 837.172,499.966 c -0.159,0.449 -0.302,0.903 -0.429,1.361 L 1119.59,784.17 c 0.12,-0.458 0.27,-0.913 0.43,-1.361 z"
               id="path44251" />
            <path
               d="m 836.743,501.327 c -1.584,5.564 -0.777,11.75 2.212,16.706 L 1121.8,800.876 c -2.99,-4.956 -3.8,-11.143 -2.21,-16.706 z"
               id="path44253" />
            <path
               d="m 838.955,518.033 c 0.193,0.337 0.512,0.817 0.654,1.039 l 282.841,282.843 c -0.14,-0.222 -0.46,-0.702 -0.65,-1.039 z"
               id="path44255" />
            <path
               d="m 839.609,519.072 c 0.754,1.123 1.618,2.169 2.574,3.125 L 1125.03,805.04 c -0.96,-0.956 -1.82,-2.002 -2.58,-3.125 z"
               id="path44257" />
            <path
               d="m 842.183,522.197 c 1.485,1.485 3.19,2.751 5.04,3.745 l 282.847,282.842 c -1.85,-0.994 -3.56,-2.259 -5.04,-3.744 z"
               id="path44259" />
            <path
               d="m 847.223,525.942 c -3.35,-8.659 -6.7,-17.317 -10.051,-25.976 l 282.848,282.843 c 3.35,8.659 6.7,17.317 10.05,25.975 z"
               id="path44261" />
            <path
               d="M 837.172,499.966 857.057,362.993 1139.9,645.836 1120.02,782.809 Z"
               id="path44263" />
            <path
               d="m 857.88,515.415 c -1.928,4.139 -3.857,8.279 -5.785,12.417 l 282.845,282.843 c 1.93,-4.139 3.85,-8.278 5.78,-12.417 z"
               id="path44265" />
            <path
               d="m 852.095,527.832 c 3.508,0.878 7.239,0.854 10.733,-0.08 l 282.842,282.843 c -3.49,0.934 -7.22,0.957 -10.73,0.08 z"
               id="path44267" />
            <path
               d="m 862.828,527.752 c -0.238,-0.593 -0.476,-1.185 -0.714,-1.778 l 282.846,282.843 c 0.23,0.593 0.47,1.185 0.71,1.778 z"
               id="path44269" />
            <path
               d="m 862.114,525.974 c -1.411,-3.519 -2.823,-7.039 -4.234,-10.559 l 282.84,282.843 c 1.41,3.519 2.83,7.04 4.24,10.559 z"
               id="path44271" />
            <path
               d="m 857.88,515.415 -0.823,-152.422 282.843,282.843 0.82,152.422 z"
               id="path44273" />
            <path
               d="m 855.391,651.181 c 0.558,0.006 1.108,0.041 1.667,0.041 L 1139.9,934.065 c -0.56,0 -1.11,-0.036 -1.67,-0.042 z"
               id="path44275" />
            <path
               d="m 857.058,651.222 h 0.52 l 282.842,282.843 h -0.52 z"
               id="path44277" />
            <path
               d="m 857.578,651.222 c 0.559,0 1.109,-0.035 1.666,-0.041 l 282.846,282.842 c -0.56,0.007 -1.11,0.042 -1.67,0.042 z"
               id="path44279" />
            <path
               d="m 859.244,651.181 -2.187,-288.188 282.843,282.843 2.19,288.187 z"
               id="path44281" />
          </g>
          <path
             id="path42625"
             style="fill:#000000;fill-opacity:1;stroke:none;stroke-width:0.812443"
             d="m 857.05718,362.99294 c -79.83955,0 -144.11388,64.27581 -144.11388,144.11536 0,75.69389 57.78468,137.35662 131.82161,143.56048 l 6.16176,-112.36939 c -5.37476,-1.11067 -10.46343,-3.60812 -14.58917,-7.2373 -6.19763,-5.39314 -10.15157,-13.26581 -10.76446,-21.45902 -0.69223,-8.3544 2.11292,-16.92294 7.60326,-23.25608 5.76733,-6.76384 14.47937,-10.90807 23.37062,-11.06794 0.54313,-0.0161 1.08645,-0.0177 1.62895,-0.004 8.13757,0.19913 16.13105,3.66381 21.82051,9.49552 2.8296,2.79112 4.88073,6.23343 6.7583,9.70528 -2.12702,1.0579 -4.25446,2.11462 -6.38192,3.17161 -0.74222,0.26701 -1.35037,0.88837 -2.15112,0.95506 -3.44812,9.02996 -6.89684,18.05974 -10.34495,27.0897 0.83294,-0.44946 1.66286,-0.90523 2.49475,-1.35671 1.49093,2.52611 2.90243,5.11118 4.44502,7.59879 0.51145,1.01439 -0.19987,2.19657 -1.20051,2.55871 -3.19777,1.85176 -6.70527,3.17112 -10.33306,3.8723 l 6.58574,112.30395 c 74.03765,-6.20317 131.82467,-67.8661 131.82467,-143.56048 0,-79.83957 -64.27592,-144.11538 -144.11546,-144.11538 z m 0.0123,122.74412 c -5.47288,0.0555 -10.87655,2.28954 -14.75726,6.16176 h 5.02669 c 1.23991,3.65138 2.48026,7.30214 3.72055,10.9534 0.29727,-0.73999 0.59533,-1.47956 0.89259,-2.21955 -1.16737,-2.91126 -2.33477,-5.82251 -3.50188,-8.73385 h 12.19705 c 1.36556,3.37147 2.73124,6.74293 4.09693,10.11437 1.37417,-4.29178 2.74953,-8.58365 4.1237,-12.87541 -3.18025,-2.05719 -6.91997,-3.23136 -10.70347,-3.38287 -0.36505,-0.0158 -0.73004,-0.0215 -1.0949,-0.0179 z m -19.89702,14.22916 c -0.15905,0.44849 -0.30231,0.9028 -0.42991,1.36118 -1.58343,5.5632 -0.77665,11.74993 2.2121,16.70604 0.19384,0.33638 0.51284,0.81679 0.65455,1.03837 1.92462,2.86838 4.57319,5.23632 7.61367,6.86985 -3.35027,-8.65864 -6.70014,-17.3168 -10.05041,-25.97544 z m 20.70778,15.44899 c -1.9285,4.13892 -3.85688,8.27833 -5.78538,12.41722 3.5084,0.87724 7.23893,0.85341 10.73322,-0.0803 -0.23801,-0.59294 -0.47603,-1.18478 -0.71406,-1.77772 -1.41118,-3.51953 -2.82259,-7.03966 -4.23378,-10.55918 z m -2.4888,135.76532 c 0.55734,0.006 1.10727,0.0416 1.66614,0.0416 h 0.52067 c 0.55888,0 1.10881,-0.0353 1.66615,-0.0416 z" />
        </g>
      </g>
    </g>
    <path
       id="rect4147-3"
       style="fill:#e4e4e4;fill-opacity:1;stroke:none;stroke-width:0.229289"
       d="m -100.53142,106.4036 c -22.53249,0 -40.67214,18.14005 -40.67214,40.67256 0,21.3625 16.30812,38.76509 37.20299,40.51594 l 1.73899,-31.71312 c -1.51688,-0.31346 -2.95302,-1.01831 -4.11739,-2.04253 -1.74911,-1.52208 -2.865,-3.74393 -3.03797,-6.05623 -0.19537,-2.3578 0.59631,-4.77602 2.14581,-6.56336 1.62766,-1.90892 4.0864,-3.07851 6.5957,-3.12364 0.15329,-0.005 0.30662,-0.005 0.45973,0 2.296604,0.0562 4.552541,1.03401 6.158233,2.67984 0.798576,0.78774 1.377451,1.75924 1.907343,2.73906 -0.600292,0.29856 -1.200703,0.59678 -1.80112,0.89509 -0.209471,0.0754 -0.381104,0.25073 -0.607094,0.26955 -0.973136,2.54844 -1.946441,5.09685 -2.919575,7.64532 0.235075,-0.12686 0.469297,-0.25547 0.704074,-0.38289 0.420774,0.71292 0.819131,1.44249 1.254484,2.14455 0.144342,0.28628 -0.05641,0.6199 -0.338811,0.72212 -0.902482,0.52259 -1.892376,0.89495 -2.916219,1.09285 l 1.858642,31.69466 c 20.895071,-1.75066 37.203853,-19.15333 37.203853,-40.51597 0,-22.53248 -18.140094,-40.67253 -40.67259,-40.67253 z m 0.003,34.6411 c -1.54457,0.0158 -3.0696,0.64618 -4.16482,1.739 h 1.41864 c 0.34993,1.03051 0.69998,2.06082 1.05002,3.09129 0.0839,-0.20884 0.16802,-0.41757 0.25191,-0.62642 -0.32946,-0.8216 -0.65892,-1.64324 -0.98831,-2.46487 h 3.44228 c 0.385392,0.95151 0.770817,1.903 1.156245,2.85451 0.387821,-1.21124 0.775979,-2.42251 1.1638,-3.63375 -0.897537,-0.58056 -1.95297,-0.91195 -3.020755,-0.9547 -0.10303,-0.005 -0.20604,-0.006 -0.30901,-0.005 z m -5.61538,4.0158 c -0.0449,0.12658 -0.0853,0.25479 -0.12133,0.38416 -0.44688,1.57006 -0.21919,3.31608 0.6243,4.71481 0.0547,0.0949 0.14474,0.23051 0.18473,0.29306 0.54317,0.80952 1.29066,1.4778 2.14875,1.93881 -0.94552,-2.44365 -1.89093,-4.88719 -2.83645,-7.33084 z m 5.8442,4.36005 c -0.54427,1.16809 -1.0885,2.33632 -1.63277,3.50441 0.99015,0.24757 2.042991,0.24085 3.029158,-0.0226 -0.06717,-0.16733 -0.134347,-0.33437 -0.201524,-0.5017 -0.398266,-0.99331 -0.796598,-1.98676 -1.194864,-2.98004 z"
       sodipodi:nodetypes="cscccccccccccccccccsccscccccccccssccccccccccsc" />
    <g
       aria-label="W "
       id="g3186"
       style="font-size:193.619px;line-height:1.25;font-family:'FiraCode Nerd Font Mono';-inkscape-font-specification:'FiraCode Nerd Font Mono';letter-spacing:0px;word-spacing:0px;opacity:0.555618;mix-blend-mode:normal;fill:url(#linearGradient2950);stroke-width:4.84048;filter:url(#filter3530)"
       transform="matrix(0.24193546,0,0,0.24193546,-231.16616,-152.78461)">
      <path
         id="path3184"
         style="font-weight:bold;font-family:'Josefin Sans';-inkscape-font-specification:'Josefin Sans Bold';fill:#000000;stroke-width:5.16318"
         d="m 536.41406,270.05664 -22.69922,0.41016 0.004,0.0137 H 495.62891 L 556.76172,428.47266 598.91602,338 l 36.11914,90.06055 58.65429,-157.58008 h -23.17383 l -16.70117,-0.0723 -19.69531,57.0293 -19.72461,-57.36719 -22.69922,0.41016 h -19.85547 l -0.0254,-0.0625 -15.67578,57.00391 z"
         transform="matrix(0.93749997,0,0,0.93749997,-15.142287,924.20075)" />
    </g>
    <g
       id="g5354"
       clip-path="url(#clipPath5439)"
       style="opacity:0.317326">
      <g
         style="font-weight:bold;font-size:193.619px;line-height:1.25;font-family:'Josefin Sans';-inkscape-font-specification:'Josefin Sans Bold';letter-spacing:0px;word-spacing:0px;fill:#666666;stroke-width:1.17108"
         id="g5351">
        <path
           d="m -114.221,130.478 -5.149,0.093 282.843,282.842 5.148,-0.093 z"
           id="path5319" />
        <path
           d="m -119.37,130.571 0.001,0.003 282.843,282.842 -10e-4,-0.003 z"
           id="path5321" />
        <path
           d="m -119.369,130.574 h -4.103 l 282.843,282.842 h 4.103 z"
           id="path5323" />
        <path
           d="m -123.472,130.574 13.866,35.834 282.842,282.843 -13.865,-35.835 z"
           id="path5325" />
        <path
           d="m -109.606,166.408 9.561,-20.52 282.843,282.843 -9.562,20.52 z"
           id="path5327" />
        <path
           d="m -100.045,145.888 8.1922,20.427 282.8428,282.843 -8.192,-20.427 z"
           id="path5329" />
        <path
           d="M -91.8528,166.315 -78.5491,130.574 204.294,413.416 190.99,449.158 Z"
           id="path5331" />
        <path
           d="m -78.5491,130.574 h -5.2562 L 199.037,413.416 h 5.257 z"
           id="path5333" />
        <path
           d="m -83.8053,130.574 -3.7881,-0.017 282.8424,282.843 3.788,0.016 z"
           id="path5335" />
        <path
           d="m -87.5934,130.557 -4.4672,12.935 282.8426,282.843 4.467,-12.935 z"
           id="path5337" />
        <path
           d="m -92.0606,143.492 -4.4738,-13.011 282.8424,282.842 4.474,13.012 z"
           id="path5339" />
        <path
           d="m -96.5344,130.481 -5.1486,0.093 282.843,282.842 5.148,-0.093 z"
           id="path5341" />
        <path
           d="m -101.683,130.574 h -4.503 l 282.842,282.842 h 4.504 z"
           id="path5343" />
        <path
           d="m -106.186,130.574 -0.006,-0.015 282.842,282.843 0.006,0.014 z"
           id="path5345" />
        <path
           d="m -106.192,130.559 -3.556,12.93 282.843,282.842 3.555,-12.929 z"
           id="path5347" />
        <path
           d="m -109.748,143.489 -4.473,-13.011 282.842,282.842 4.474,13.011 z"
           id="path5349" />
      </g>
      <path
         id="path2952"
         style="font-weight:bold;font-size:193.619px;line-height:1.25;font-family:'Josefin Sans';-inkscape-font-specification:'Josefin Sans Bold';letter-spacing:0px;word-spacing:0px;fill:#666666;stroke-width:1.17108"
         d="m -114.22148,130.47757 -5.14851,0.093 9.1e-4,0.003 h -4.10306 l 13.86581,35.83491 9.5612,-20.52051 8.192346,20.42704 13.303643,-35.74145 h -5.256161 l -3.788067,-0.0164 -4.467182,12.93507 -4.473827,-13.01171 -5.148512,0.093 h -4.50351 l -0.006,-0.0142 -3.55549,12.92931 z" />
    </g>
    <g
       id="g3174"
       transform="matrix(0.24193887,0,0,0.24193887,-230.62639,-112.91264)">
      <text
         xml:space="preserve"
         style="font-size:193.619px;line-height:1.25;font-family:'FiraCode Nerd Font Mono';-inkscape-font-specification:'FiraCode Nerd Font Mono';letter-spacing:0px;word-spacing:0px;fill:url(#linearGradient60605);fill-opacity:1;stroke-width:4.84048"
         x="436.70181"
         y="1147.9293"
         id="text1960"><tspan
           sodipodi:role="line"
           id="tspan1958"
           style="font-style:normal;font-variant:normal;font-weight:bold;font-stretch:normal;font-family:'Josefin Sans';-inkscape-font-specification:'Josefin Sans Bold';fill:url(#linearGradient60605);fill-opacity:1;stroke-width:4.84048"
           x="436.70181"
           y="1147.9293">W</tspan><tspan
           sodipodi:role="line"
           style="fill:url(#linearGradient60605);fill-opacity:1;stroke-width:4.84048"
           x="436.70181"
           y="1389.9531"
           id="tspan1962" /></text>
      <path
         style="fill:url(#linearGradient64981);fill-opacity:1;stroke:none;stroke-width:0.9375px;stroke-linecap:butt;stroke-linejoin:miter;stroke-opacity:1"
         d="m 532.95874,1006.394 21.28053,-0.3835 18.49233,53.7805 18.46398,-53.4649 18.61964,0.081 -40.36724,102.2112 z"
         id="path64566-0"
         sodipodi:nodetypes="ccccccc" />
      <path
         style="fill:url(#linearGradient65777);fill-opacity:1;stroke:none;stroke-width:0.9375px;stroke-linecap:butt;stroke-linejoin:miter;stroke-opacity:1"
         d="m 459.85226,1006.3809 21.28053,-0.3835 18.49233,53.7805 14.69537,-53.4414 11.58039,28.1189 -29.55938,74.1498 z"
         id="path64566-0-7"
         sodipodi:nodetypes="ccccccc" />
    </g>
  </g>
</svg>
